# xmcd
#
# Track frame offsets:
#	150
#	20206
#	34295
#	53982
#	73878
#	85935
#	103111
#	116884
#	132276
#	150433
#	165747
#	187569
#	205885
#	225525
#	245290
#
# Disc length: 3561 seconds
#
# Revision: 0
# Processed by: cddbd v1.5.2PL0 Copyright (c) Steve Scherf et al.
# Submitted via: EasyCDDAExtractor 8.2.3.1
#
DISCID=cb0de70f
DTITLE=John Campbell - Deeper Shade Of Blue
DYEAR=1900
DGENRE=Blues
TTITLE0=Mean Old World
TTITLE1=Walkin' Blues
TTITLE2=Early In The Mornibg
TTITLE3=Deeper Shade Of Blue
TTITLE4=Key To The Highway
TTITLE5=Long Distance Call
TTITLE6=I Feel Like My Time Ain't Long
TTITLE7=Worried About My Baby
TTITLE8=Come On In My Kitchen
TTITLE9=Hitchhikin' Woman - take 1
TTITLE10=Hitchhikin' Woman - take 2
TTITLE11=Shake Em On Down
TTITLE12=Talk To My Baby
TTITLE13=Goin' To Lousiana (Mojo Hand)
TTITLE14=Boom Boom Boom
EXTD=
EXTT0=
EXTT1=
EXTT2=
EXTT3=
EXTT4=
EXTT5=
EXTT6=
EXTT7=
EXTT8=
EXTT9=
EXTT10=
EXTT11=
EXTT12=
EXTT13=
EXTT14=
PLAYORDER=
